<svg width="90" height="26" viewBox="0 0 90 26" fill="none" xmlns="http://www.w3.org/2000/svg">
<path fill-rule="evenodd" clip-rule="evenodd" d="M89.2017 2.34684C88.5874 2.34684 87.9729 2.35453 87.3589 2.34197C87.1838 2.33828 87.1046 2.39308 87.0343 2.55215C85.8914 5.13488 84.7414 7.71465 83.5925 10.2949C83.5634 10.3603 83.5299 10.424 83.4862 10.5133C83.4398 10.4144 83.4097 10.3506 83.3801 10.2867C82.1835 7.6953 80.9859 5.10416 79.7926 2.51124C79.736 2.3882 79.6728 2.33946 79.5309 2.34271C79.0409 2.35349 78.5506 2.34684 78.0603 2.34684H77.4531V13.6987H79.723V6.94867C79.7357 6.94719 79.7484 6.94586 79.761 6.94438C79.7763 6.97481 79.7926 7.00494 79.8069 7.03581C80.7617 9.10365 81.7176 11.1709 82.6676 13.2408C82.7209 13.3567 82.7808 13.3948 82.9039 13.3916C83.2287 13.3835 83.554 13.3792 83.8782 13.3931C84.0334 13.3997 84.1015 13.3448 84.1649 13.2074C85.1186 11.1391 86.0788 9.07396 87.0381 7.00834C87.0609 6.95945 87.0912 6.91396 87.118 6.86699C87.129 6.87009 87.1401 6.87334 87.151 6.87659V13.6971H89.4058V2.34684H89.2017Z" fill="#767B9F"/>
<path fill-rule="evenodd" clip-rule="evenodd" d="M54.4805 13.6949H62.0733V11.6436H56.8529V8.99159H61.3376V6.93572H56.8527V4.39051H62.0734V2.36182H54.4805V13.6949Z" fill="#767B9F"/>
<path fill-rule="evenodd" clip-rule="evenodd" d="M67.9919 9.59682C68.4981 8.09926 68.9997 6.615 69.5142 5.09278C70.0384 6.61012 70.5501 8.09173 71.0701 9.59682H67.9919ZM74.1344 11.2747C73.0236 8.36897 71.9114 5.46366 70.8063 2.55569C70.7438 2.39115 70.6689 2.33842 70.4922 2.34196C69.8429 2.35496 69.1931 2.35437 68.5436 2.34211C68.3776 2.33886 68.311 2.39484 68.2563 2.5424C66.8957 6.21487 65.5306 9.88558 64.1669 13.5567C64.1499 13.6025 64.1388 13.6507 64.1211 13.7103C64.9089 13.7103 65.6763 13.7068 66.4436 13.7137C66.5673 13.7148 66.6165 13.6743 66.6536 13.5619C66.8629 12.9253 67.0822 12.2921 67.2918 11.6556C67.3264 11.5511 67.3692 11.5091 67.4866 11.5096C68.8508 11.5141 70.2149 11.5137 71.579 11.5105C71.6885 11.5102 71.743 11.5362 71.7807 11.6496C71.9545 12.1742 72.1403 12.695 72.3232 13.2166C72.3791 13.3767 72.3954 13.5962 72.5094 13.6778C72.6242 13.7601 72.8378 13.7092 73.0079 13.7096C73.6862 13.7112 74.3644 13.7103 75.0557 13.7103C75.0384 13.6523 75.0279 13.6074 75.0116 13.5647C74.7196 12.8012 74.4265 12.0382 74.1344 11.2747Z" fill="#767B9F"/>
<path fill-rule="evenodd" clip-rule="evenodd" d="M39.2183 7.66677C38.4727 7.33444 37.6986 7.06548 36.9345 6.77524C36.4724 6.59962 35.9929 6.46004 35.5981 6.14603C35.0858 5.73852 35.0914 4.95732 35.6046 4.54995C35.9495 4.27626 36.3592 4.19488 36.7824 4.18808C37.7701 4.17257 38.6758 4.45291 39.5081 4.97918C39.5462 5.00325 39.5874 5.02245 39.6359 5.0486C39.9716 4.4541 40.3014 3.86993 40.644 3.26317C40.4855 3.16155 40.3472 3.06037 40.1979 2.97973C38.6767 2.15732 37.0592 1.94581 35.386 2.32644C33.8897 2.66675 32.885 3.65443 32.7597 5.17695C32.6939 5.97868 32.8448 6.7265 33.3771 7.36206C33.8133 7.88257 34.3825 8.21844 35.0011 8.462C35.6906 8.73333 36.4015 8.95001 37.093 9.21647C37.4254 9.34453 37.7606 9.49592 38.049 9.70079C38.5345 10.0458 38.5605 10.7298 38.1487 11.1589C37.9233 11.3935 37.6394 11.5168 37.331 11.5867C36.481 11.7794 35.6395 11.6906 34.8155 11.455C34.304 11.309 33.8099 11.1023 33.2916 10.9168C33.059 11.5449 32.8157 12.2018 32.5742 12.8539C32.6142 12.8807 32.6281 12.8915 32.6433 12.8999C34.3105 13.8189 36.0829 14.1229 37.9533 13.7629C38.8226 13.5959 39.6121 13.2278 40.1791 12.521C41.0054 11.4912 41.1786 10.3291 40.7168 9.09934C40.4536 8.39894 39.8763 7.95996 39.2183 7.66677Z" fill="#767B9F"/>
<path fill-rule="evenodd" clip-rule="evenodd" d="M42.668 4.4017H46.086V13.6985H48.468V4.38767H51.8557V2.35986H42.668V4.4017Z" fill="#767B9F"/>
<path fill-rule="evenodd" clip-rule="evenodd" d="M32.7461 22.8805L33.3802 22.1296C33.6777 22.3882 33.9768 22.5822 34.277 22.7114C34.5773 22.8408 34.907 22.9055 35.2658 22.9055C35.591 22.9055 35.849 22.8367 36.0394 22.699C36.23 22.5613 36.3252 22.3744 36.3252 22.138C36.3252 21.9878 36.2905 21.8633 36.2209 21.7645C36.1514 21.6658 36.0186 21.5714 35.8226 21.4809C35.6264 21.3907 35.3449 21.3022 34.9779 21.2159C34.633 21.1354 34.3479 21.0512 34.1227 20.9636C33.8974 20.8761 33.6938 20.7642 33.5116 20.6279C33.3294 20.4916 33.1958 20.3254 33.1111 20.1294C33.0261 19.9333 32.9839 19.6975 32.9839 19.4224C32.9839 18.9106 33.175 18.4935 33.5574 18.1709C33.9398 17.8483 34.4299 17.687 35.028 17.687C35.8539 17.687 36.5769 17.9372 37.1971 18.4378L36.6339 19.2345C36.0805 18.823 35.5396 18.6172 35.0113 18.6172C34.7108 18.6172 34.473 18.6855 34.2979 18.8217C34.1227 18.9578 34.0351 19.1317 34.0351 19.3431C34.0351 19.5015 34.0747 19.6324 34.154 19.7352C34.2332 19.838 34.373 19.9327 34.5732 20.0188C34.7735 20.1051 35.0668 20.1941 35.4535 20.2858C36.118 20.4471 36.6048 20.6606 36.9134 20.9261C37.2221 21.1917 37.3764 21.5666 37.3764 22.0503C37.3764 22.6009 37.1797 23.0364 36.7862 23.3561C36.3926 23.6759 35.8775 23.8357 35.2406 23.8357C34.2896 23.8357 33.458 23.5174 32.7461 22.8805Z" fill="#767B9F"/>
<path fill-rule="evenodd" clip-rule="evenodd" d="M46.293 23.7525V17.7705H47.3442V20.7782L50.1891 17.7705H51.4781L48.9919 20.3444L51.5908 23.7525H50.3185L48.2744 21.0618L47.3442 22.0171V23.7525H46.293Z" fill="#767B9F"/>
<path fill-rule="evenodd" clip-rule="evenodd" d="M60.2344 23.7525H61.2856V17.7705H60.2344V23.7525Z" fill="#767B9F"/>
<path fill-rule="evenodd" clip-rule="evenodd" d="M70.5703 23.7525V17.7705H71.5463L74.7501 21.9087V17.7705H75.7847V23.7525H74.9045L71.6048 19.4974V23.7525H70.5703Z" fill="#767B9F"/>
<path fill-rule="evenodd" clip-rule="evenodd" d="M84.6016 22.8805L85.2356 22.1296C85.5331 22.3882 85.8322 22.5822 86.1325 22.7114C86.4328 22.8408 86.7624 22.9055 87.1212 22.9055C87.4465 22.9055 87.7045 22.8367 87.8949 22.699C88.0854 22.5613 88.1807 22.3744 88.1807 22.138C88.1807 21.9878 88.146 21.8633 88.0764 21.7645C88.0068 21.6658 87.8741 21.5714 87.6781 21.4809C87.4819 21.3907 87.2004 21.3022 86.8333 21.2159C86.4885 21.1354 86.2034 21.0512 85.9782 20.9636C85.7529 20.8761 85.5492 20.7642 85.3671 20.6279C85.1848 20.4916 85.0513 20.3254 84.9665 20.1294C84.8816 19.9333 84.8394 19.6975 84.8394 19.4224C84.8394 18.9106 85.0305 18.4935 85.4129 18.1709C85.7953 17.8483 86.2854 17.687 86.8834 17.687C87.7094 17.687 88.4324 17.9372 89.0526 18.4378L88.4894 19.2345C87.9359 18.823 87.3951 18.6172 86.8667 18.6172C86.5663 18.6172 86.3285 18.6855 86.1533 18.8217C85.9782 18.9578 85.8906 19.1317 85.8906 19.3431C85.8906 19.5015 85.9301 19.6324 86.0095 19.7352C86.0886 19.838 86.2285 19.9327 86.4286 20.0188C86.6289 20.1051 86.9223 20.1941 87.309 20.2858C87.9735 20.4471 88.4603 20.6606 88.7688 20.9261C89.0775 21.1917 89.2319 21.5666 89.2319 22.0503C89.2319 22.6009 89.0352 23.0364 88.6417 23.3561C88.248 23.6759 87.733 23.8357 87.0961 23.8357C86.1451 23.8357 85.3135 23.5174 84.6016 22.8805Z" fill="#767B9F"/>
<path d="M12.7792 0.866699C19.4801 0.866699 24.9125 6.299 24.9125 13C24.9125 19.701 19.4801 25.1334 12.7792 25.1334C7.29115 25.1334 2.65414 21.4902 1.15513 16.4901L1.17021 16.5386L5.76401 18.4345C5.99543 19.4687 6.70489 20.3758 7.75159 20.8122C9.4641 21.5277 11.4387 20.7122 12.151 18.999C12.3364 18.5512 12.4229 18.0814 12.4104 17.6128L16.6586 14.5768C16.693 14.5779 16.7284 14.5789 16.7627 14.5789C19.305 14.5789 21.3713 12.5064 21.3713 9.96118C21.3713 7.41578 19.305 5.3451 16.7627 5.3451C14.2215 5.3451 12.1542 7.41578 12.1542 9.96118C12.1542 9.98159 12.1542 10.002 12.1552 10.0212L9.18613 14.3342C8.70517 14.3123 8.22255 14.3967 7.76492 14.5852C7.56318 14.6675 7.37415 14.7685 7.19678 14.8851L0.677176 12.2012L0.677075 12.2018L0.671875 12.1939C1.08141 5.96053 6.19743 1.01197 12.5003 0.86984L12.7792 0.866699ZM10.0444 15.3017C10.6852 15.5683 11.1825 16.0703 11.446 16.7119C11.7094 17.3535 11.7084 18.0617 11.4418 18.7011C10.8904 20.0249 9.36922 20.6529 8.04695 20.1019C7.43695 19.8478 6.97641 19.3823 6.71072 18.8272L8.21099 19.4489C9.18613 19.8551 10.3049 19.3927 10.7102 18.4179C11.1168 17.442 10.6556 16.3213 9.68094 15.9152L8.13006 15.2726C8.7285 15.0455 9.4088 15.0372 10.0444 15.3017ZM16.7627 6.88577C18.4562 6.88577 19.8341 8.26616 19.8341 9.96118C19.8341 11.6576 18.4562 13.0375 16.7627 13.0375C15.0703 13.0375 13.6924 11.6576 13.6924 9.96118C13.6924 8.26616 15.0703 6.88577 16.7627 6.88577ZM16.768 7.64533C15.4953 7.64533 14.4621 8.68036 14.4621 9.95649C14.4621 11.2327 15.4953 12.2668 16.768 12.2668C18.0417 12.2668 19.0748 11.2327 19.0748 9.95649C19.0748 8.68036 18.0417 7.64533 16.768 7.64533Z" fill="#767B9F"/>
</svg>
