<svg width="16" height="12" viewBox="0 0 16 12" fill="none" xmlns="http://www.w3.org/2000/svg">
<path fill-rule="evenodd" clip-rule="evenodd" d="M0 0V12H16V0H0Z" fill="#E31D1C"/>
<path fill-rule="evenodd" clip-rule="evenodd" d="M8.0127 8.05682C6.94204 7.79306 6.10348 6.8969 6.11321 5.58323C6.12232 4.35352 6.86685 3.31409 8.04382 3.03271C9.2208 2.75133 10.257 3.34864 10.257 3.34864C9.93174 2.58073 8.80163 2.04126 7.87514 2.04281C6.15052 2.0457 4.31208 3.44432 4.29624 5.58323C4.27981 7.80072 6.26493 9.06359 8.01084 9.06067C9.41047 9.05832 10.0744 8.10075 10.2119 7.6934C10.2119 7.6934 9.08336 8.32058 8.0127 8.05682ZM10.4516 5.16335L9.38491 5.55518L10.5885 5.97978L10.568 7.24847L11.3611 6.29667L12.6711 6.39186L11.633 5.49949L12.3145 4.54759L11.2048 4.92108L10.4116 4.03928L10.4516 5.16335Z" fill="#F7FCFF"/>
</svg>
