<svg width="56" height="19" viewBox="0 0 56 19" fill="none" xmlns="http://www.w3.org/2000/svg">
<path d="M28.5614 6.03243C28.5275 8.51601 30.7784 9.90191 32.464 10.7224C34.205 11.5651 34.7809 12.1084 34.7809 12.8623C34.7702 14.0154 33.3956 14.5254 32.1093 14.5476C29.8691 14.5808 28.5614 13.9378 27.53 13.461L26.7206 17.2418C27.7627 17.7186 29.681 18.1399 31.6769 18.1621C36.3667 18.1621 39.427 15.8448 39.4493 12.2636C39.4716 7.71773 33.1513 7.4627 33.1959 5.42263C33.2066 4.80173 33.7941 4.14757 35.092 3.98126C35.7347 3.89256 37.4979 3.83712 39.493 4.75738L40.281 1.09853C39.1943 0.710472 37.8082 0.333496 36.0895 0.333496C31.6876 0.333496 28.5837 2.67294 28.5614 6.03243ZM47.8091 0.643945C46.9551 0.643945 46.2348 1.14288 45.913 1.90791L39.2166 17.8849H43.8948L44.8264 15.3126H50.5476L51.0904 17.8849H55.2151L51.6119 0.643945H47.8091ZM48.4634 5.31175L49.8157 11.7868H46.1127L48.4634 5.31175ZM22.8844 0.643945L19.1923 17.896H23.6496L27.3419 0.643945H22.8844ZM16.2763 0.643945L11.6307 12.3855L9.75695 2.40684C9.53517 1.2981 8.67039 0.643945 7.69463 0.643945H0.110894L0 1.15397C1.5633 1.49768 3.32619 2.04096 4.4017 2.61751C5.05583 2.9723 5.24436 3.28275 5.46606 4.13648L9.02518 17.896H13.7373L20.9663 0.643945H16.2763Z" fill="#767B9F"/>
</svg>
