<svg width="105" height="25" viewBox="0 0 105 25" fill="none" xmlns="http://www.w3.org/2000/svg">
<path d="M92.436 0.866211C94.3146 0.866211 96.102 1.29767 97.706 2.06947C97.9575 2.18323 98.2107 2.31938 98.4614 2.45566L97.3617 3.43222L95.7129 1.72925L92.8719 4.22665L91.199 2.43267L85.9748 7.08749L89.3195 10.7431L88.0138 11.8781L91.3136 15.5337L90.0078 16.6682L94.728 21.8679L97.5217 19.3248L99.9515 22.0502C99.47 22.4135 98.943 22.7775 98.3709 23.0949C96.6292 24.0711 94.6126 24.6376 92.4591 24.6376C85.8369 24.6376 80.4532 19.303 80.4532 12.7417C80.4299 6.2248 85.8144 0.866211 92.436 0.866211ZM90.236 12.0146L93.1002 9.47148L95.6669 12.3096L92.8022 14.8525L90.236 12.0146ZM92.2758 16.9191L95.1167 14.3535L97.706 17.1913L94.8417 19.7346L92.2758 16.9191ZM88.198 7.17861L91.0614 4.63547L93.6275 7.47356L90.7632 10.0166L88.198 7.17861ZM93.4439 5.81586L95.575 3.90871L97.5001 6.02039L95.369 7.95006L93.4439 5.81586ZM97.2478 14.5574L99.3781 12.6501L101.303 14.7839L99.172 16.6923L97.2478 14.5574ZM99.1264 18.8491L101.257 16.9415L103.181 19.0531L101.051 20.9825L99.1264 18.8491ZM99.9972 9.04002L101.418 7.76839L102.7 9.17665L101.28 10.4478L99.9972 9.04002ZM98.1642 4.83953L99.5846 3.54561L100.868 4.9758L99.4467 6.24731L98.1642 4.83953ZM101.807 13.2409L103.227 11.9694L104.533 13.3771L103.09 14.6483L101.807 13.2409ZM95.4147 10.0847L97.5458 8.17745L99.47 10.2887L97.3398 12.1963L95.4147 10.0847Z" fill="#767B9F"/>
<path d="M7.15415 9.2692H7.04598L5.01507 16.979H3.35509L0.863281 6.02588H2.5856L4.30833 14.1987H4.41591L6.41504 6.02588H7.78434L9.9223 14.1987H10.0299L11.599 6.02588H13.3986L10.9062 16.979H9.24497L7.15415 9.2692Z" fill="#767B9F"/>
<path d="M15.5838 12.3163H19.1052C19.0288 10.6947 18.244 10.0464 17.4138 10.0464C16.4756 10.0464 15.7522 10.7724 15.5838 12.3163ZM20.3355 15.2215V16.3958C19.6435 16.7973 18.7212 17.1065 17.6131 17.1065C15.0299 17.1065 13.9688 15.4999 13.9688 13.0593C13.9688 10.7101 15.1528 9.01074 17.4599 9.01074C19.3819 9.01074 20.5669 10.2629 20.5669 12.7804V13.3521H15.5529C15.5529 15.2054 16.3061 16.0244 17.8909 16.0244C18.7212 16.0244 19.4902 15.7303 20.3355 15.2215Z" fill="#767B9F"/>
<path d="M24.1466 15.8679C24.6389 16.0841 25.1776 16.1161 25.5628 16.1161C26.7006 16.1161 27.561 15.4044 27.561 12.9024C27.561 10.9404 26.8536 10.307 25.8235 10.307C25.2078 10.307 24.762 10.4775 24.1466 10.8167V15.8679ZM24.1628 9.67381C24.6231 9.42745 25.4073 9.1019 26.2382 9.1019C28.1456 9.1019 29.1762 10.4304 29.1762 12.9024C29.1762 15.7915 27.7917 17.1973 25.5628 17.1973C24.747 17.1973 23.4858 16.9346 22.5625 16.4392V5.65715L24.1628 5.27148V9.67381H24.1628Z" fill="#767B9F"/>
<path d="M36.0992 14.6553H36.1763L39.467 6.01953H41.3752V16.9734H39.7141V9.03225H39.5755L36.4374 16.9734H35.454L32.3152 9.21791H32.1773V16.9734H30.793V6.01953H32.6545L36.0992 14.6553Z" fill="#767B9F"/>
<path d="M48.1632 13.0588C48.1632 10.9734 47.3179 10.0933 46.2721 10.0933C45.2574 10.0933 44.3799 10.9734 44.3799 13.0588C44.3799 15.1755 45.1807 16.0244 46.2721 16.0244C47.3635 16.0244 48.1632 15.1755 48.1632 13.0588ZM42.7656 13.0588C42.7656 10.3543 44.2425 9.01074 46.2721 9.01074C48.303 9.01074 49.779 10.3543 49.779 13.0588C49.779 15.7 48.3795 17.1065 46.2721 17.1065C44.1651 17.1065 42.7656 15.7 42.7656 13.0588Z" fill="#767B9F"/>
<path d="M50.9961 10.1548C51.6881 9.73701 53.1499 9.01074 54.9182 9.01074C56.7637 9.01074 57.4545 9.73701 57.4545 11.3278V16.921H55.8561V11.6836C55.8561 10.4634 55.2573 10.2471 54.4719 10.2471C53.8575 10.2471 53.0721 10.5256 52.5957 10.8036V16.921H50.9961V10.1548Z" fill="#767B9F"/>
<path d="M60.8372 12.3163H64.3589C64.2832 10.6947 63.498 10.0464 62.6674 10.0464C61.729 10.0464 61.0071 10.7724 60.8372 12.3163ZM65.589 15.2215V16.3958C64.8974 16.7973 63.9745 17.1065 62.8669 17.1065C60.2845 17.1065 59.2227 15.4999 59.2227 13.0593C59.2227 10.7101 60.4063 9.01074 62.7135 9.01074C64.6367 9.01074 65.8215 10.2629 65.8215 12.7804V13.3521H60.8069C60.8069 15.2054 61.5607 16.0244 63.1448 16.0244C63.9745 16.0244 64.7447 15.7303 65.589 15.2215Z" fill="#767B9F"/>
<path d="M72.2045 9.01074H73.8506L71.0666 16.734C70.2965 18.8661 69.3594 19.9785 67.591 19.9785V18.7126C68.6375 18.7126 69.2824 17.878 69.6524 16.734L66.6992 9.01074H68.3913L70.3599 14.6957H70.4522L72.2045 9.01074Z" fill="#767B9F"/>
</svg>
